<svg width="67" height="32" viewBox="0 0 67 32" fill="none" xmlns="http://www.w3.org/2000/svg">
<g clip-path="url(#clip0_6671_32286)">
<path d="M43.8421 3.04286C46.5348 0.541887 50.3697 -0.104199 53.9169 0.0125132C53.9169 0.691945 53.9169 1.36721 53.9169 2.04664C51.2367 2.00496 48.3897 2.30924 46.118 3.86402C47.4644 5.06866 48.7732 6.365 49.6027 7.99897C50.4731 9.62742 51.1368 11.3581 51.5785 13.151C52.6664 13.126 53.7543 13.2302 54.8381 13.151C55.2297 13.1145 55.5969 12.9448 55.8783 12.6702C56.1598 12.3955 56.3385 12.0326 56.3845 11.6421C56.5096 10.3457 56.3553 9.03687 56.4721 7.74053C56.6637 6.85093 57.1532 6.05336 57.8596 5.47962C58.5659 4.90589 59.4469 4.59034 60.3569 4.58513C61.4686 4.58441 62.5355 5.02345 63.3247 5.80644C64.1161 5.02145 65.1638 4.5479 66.2759 4.47259C66.2759 5.16869 66.2759 5.86897 66.2759 6.55674C65.8639 6.56732 65.4657 6.70698 65.1374 6.95603C64.8091 7.20507 64.5672 7.55092 64.446 7.94478C64.3335 9.38701 64.5252 10.8626 64.3335 12.284C64.2058 13.1131 63.8208 13.8811 63.2329 14.4795C62.645 15.0778 61.8839 15.4763 61.0572 15.6186C60.358 15.7344 59.6407 15.6657 58.9762 15.4194C58.3117 15.173 57.7229 14.7575 57.2682 14.2139C56.5345 14.8686 55.588 15.2345 54.6047 15.2435C53.0457 15.2435 51.491 15.2435 49.932 15.2435C49.8195 14.7474 49.7028 14.2472 49.5944 13.7512C49.2169 14.2282 48.7341 14.6112 48.1837 14.8701C47.6333 15.129 47.0304 15.2568 46.4223 15.2435C44.6549 15.2435 42.8876 15.2435 41.1202 15.2435C40.1826 15.1982 39.286 14.8452 38.5692 14.2389C38.1997 14.6712 37.7436 15.0211 37.2303 15.266C36.717 15.5109 36.1581 15.6453 35.5896 15.6607C35.0211 15.676 34.4557 15.5718 33.93 15.3549C33.4043 15.138 32.93 14.8132 32.5377 14.4015C32.1384 14.8172 31.6562 15.1444 31.1223 15.3618C30.5885 15.5792 30.0149 15.682 29.4388 15.6636C28.8626 15.6451 28.2968 15.5057 27.7779 15.2546C27.2591 15.0034 26.7989 14.646 26.427 14.2056C25.6774 14.9097 24.6789 15.2875 23.6509 15.256C22.4713 15.256 21.2917 15.256 20.112 15.256C19.1352 15.1688 18.2168 14.7529 17.5068 14.0763C17.1246 14.4583 16.6691 14.7589 16.1677 14.9602C15.6662 15.1615 15.1292 15.2593 14.589 15.2476C11.6379 15.2476 8.6909 15.2476 5.74391 15.2476C4.81812 15.22 3.93393 14.8568 3.25604 14.2257C2.57814 13.5946 2.15277 12.7386 2.05914 11.8171C2.00912 9.92889 2.05914 8.04065 2.0383 6.15241C2.7219 6.15241 3.4055 6.15241 4.0891 6.15241C4.0891 7.90726 4.0891 9.66628 4.0891 11.4211C4.08333 11.8667 4.25178 12.2968 4.55856 12.62C4.86534 12.9431 5.28618 13.1336 5.73141 13.151C8.68256 13.1885 11.6379 13.151 14.589 13.151C15.4769 13.226 16.4398 12.5716 16.4523 11.6296C16.4939 9.41619 16.4523 7.20282 16.4731 4.98946H18.5156C18.5656 7.20699 18.4364 9.42869 18.6156 11.6587C18.6487 12.0826 18.8457 12.4769 19.1648 12.7578C19.4839 13.0388 19.9 13.1843 20.3246 13.1635C21.5084 13.1843 22.688 13.1843 23.8718 13.1635C24.2869 13.1715 24.6896 13.0221 24.9989 12.7452C25.3083 12.4684 25.5013 12.0846 25.5391 11.6712C25.6017 9.83719 25.5391 8.00314 25.5642 6.16492C26.2728 6.16492 26.9772 6.16492 27.6817 6.16492C27.6817 8.06566 27.6817 9.9664 27.6817 11.8713C27.7015 12.1321 27.7751 12.386 27.898 12.6169C28.0208 12.8479 28.1902 13.0508 28.3955 13.2129C28.6007 13.3751 28.8373 13.493 29.0904 13.5591C29.3435 13.6252 29.6075 13.6381 29.8658 13.597C30.3228 13.5184 30.7366 13.279 31.0324 12.922C31.3283 12.565 31.4867 12.114 31.479 11.6504C31.479 9.60376 31.479 7.5613 31.479 5.51466H33.5631C33.5631 7.63633 33.5298 9.75382 33.5631 11.8713C33.5821 12.1555 33.6654 12.4317 33.8067 12.679C33.948 12.9264 34.1437 13.1383 34.379 13.2989C34.6143 13.4595 34.883 13.5645 35.1648 13.6061C35.4466 13.6476 35.7341 13.6245 36.0057 13.5386C36.4082 13.4141 36.7597 13.1631 37.0082 12.823C37.2568 12.4828 37.389 12.0716 37.3854 11.6504C37.3854 9.43703 37.3854 7.22783 37.3854 5.01447C38.0607 5.01447 38.7401 5.01447 39.4154 5.01447C39.4154 7.1528 39.4154 9.29114 39.4154 11.4295C39.4007 11.8456 39.5423 12.2522 39.8123 12.5693C40.0823 12.8863 40.4611 13.0908 40.8743 13.1426C42.8375 13.251 44.8051 13.251 46.7683 13.1426C47.1466 13.1032 47.4994 12.933 47.7657 12.6614C48.0321 12.3897 48.1953 12.0336 48.2272 11.6546C48.2912 10.5232 47.987 9.4015 47.3602 8.45748C46.367 7.03 45.1593 5.76457 43.7796 4.70601C43.8185 4.13913 43.8394 3.58474 43.8421 3.04286ZM59.5191 6.83184C59.1999 6.98431 58.9312 7.22525 58.745 7.526C58.5588 7.82675 58.4629 8.17466 58.4687 8.52834C58.4687 9.74965 58.4187 10.9751 58.5229 12.1964C58.6497 12.6382 58.9281 13.0212 59.3093 13.2781C59.6904 13.535 60.1499 13.6494 60.607 13.6012C61.0456 13.5591 61.4547 13.3617 61.7605 13.0445C62.0662 12.7272 62.2485 12.3111 62.2743 11.8713C62.2743 10.6208 62.3077 9.37034 62.2493 8.11985C62.1863 7.83536 62.0589 7.56908 61.877 7.34141C61.6951 7.11375 61.4636 6.93074 61.2 6.80641C60.9365 6.68208 60.648 6.61973 60.3566 6.62414C60.0652 6.62855 59.7787 6.6996 59.5191 6.83184V6.83184Z" fill="#3C81C0"/>
<path d="M9.42035 21.7835C9.93843 21.2405 10.5896 20.8424 11.3091 20.6289C12.0286 20.4153 12.7915 20.3938 13.522 20.5664C14.4049 20.7812 15.1934 21.2786 15.7676 21.9829C16.3417 22.6872 16.67 23.5598 16.7024 24.4679C16.7274 26.8772 16.7024 29.2906 16.7024 31.7041H14.6391C14.6391 29.3573 14.6391 27.0147 14.6391 24.6721C14.6468 24.3971 14.6 24.1232 14.5014 23.8662C14.4027 23.6093 14.2541 23.3745 14.0643 23.1753C13.8744 22.9761 13.6469 22.8165 13.395 22.7057C13.1431 22.5949 12.8717 22.535 12.5966 22.5296C12.1318 22.5011 11.6713 22.6328 11.292 22.9029C10.9127 23.173 10.6375 23.565 10.5124 24.0136C10.4416 26.5729 10.5124 29.1364 10.4749 31.6957C9.75799 31.6957 9.04521 31.6957 8.32826 31.6957C8.30742 29.2823 8.32826 26.8605 8.32826 24.4471C8.32117 24.1796 8.25971 23.9164 8.14762 23.6734C8.03553 23.4304 7.87516 23.2128 7.67628 23.0338C7.4774 22.8548 7.24417 22.7182 6.99078 22.6322C6.7374 22.5463 6.46917 22.5128 6.20243 22.5338C5.68769 22.5281 5.19122 22.7244 4.81951 23.0805C4.44781 23.4366 4.23048 23.9242 4.21415 24.4387C4.18914 26.8605 4.21415 29.2781 4.21415 31.6957H2.08415C2.08415 29.1947 2.08415 26.7229 2.08415 24.2428C2.00496 23.2007 0.99623 22.5088 7.0543e-06 22.4379C-0.0250027 21.7502 7.0543e-06 21.0624 7.0543e-06 20.3746C1.17821 20.4267 2.29265 20.9243 3.11789 21.7668C3.83191 21.0804 4.74013 20.6306 5.71891 20.4788C7.08611 20.1871 8.47415 20.8415 9.42035 21.7835Z" fill="#3C81C0"/>
<path d="M30.8037 21.5167C31.3319 21.0567 31.8888 20.6307 32.471 20.2412C33.5464 21.6668 34.6927 23.0423 35.8057 24.4554C36.8894 23.0257 38.0357 21.6501 39.1403 20.2329C39.7072 20.6497 40.2365 21.0666 40.7701 21.5084C39.5488 23.0382 38.3441 24.5804 37.1312 26.0935C38.3483 27.6191 39.5404 29.1739 40.7743 30.6787C40.2505 31.137 39.7038 31.5682 39.1361 31.9708C38.0482 30.5494 36.9061 29.1656 35.8015 27.7483C34.7011 29.1572 33.5714 30.5411 32.4668 31.9583C31.8875 31.5915 31.3873 31.1247 30.7995 30.7454C31.9875 29.1781 33.2005 27.6316 34.4551 26.1185C33.2713 24.5929 32.0542 23.034 30.8037 21.5167Z" fill="#3C81C0"/>
<path d="M19.5243 24.0136C19.6428 23.1327 20.0443 22.3142 20.6682 21.6812C21.2922 21.0482 22.1049 20.635 22.984 20.5039C24.0932 20.4146 25.2068 20.3937 26.3186 20.4413C26.8078 20.4373 27.2797 20.6216 27.6366 20.9561C27.9936 21.2906 28.2082 21.7495 28.236 22.2379C28.236 25.3933 28.236 28.5487 28.236 31.7082H26.2061C26.2061 31.3122 26.2061 30.9163 26.2311 30.5203C24.9806 31.2872 23.3383 31.6624 21.9169 31.1122C21.2254 30.8659 20.6253 30.415 20.1964 29.8193C19.7675 29.2236 19.5301 28.5114 19.516 27.7775C19.5243 26.5187 19.4743 25.2682 19.5243 24.0136ZM21.5876 24.4596C21.6126 25.5642 21.5626 26.6688 21.5876 27.7942C21.6208 28.202 21.805 28.5827 22.1041 28.8618C22.4033 29.1409 22.7958 29.2982 23.2049 29.3031C23.7748 29.2967 24.337 29.171 24.8553 28.9341C25.3737 28.6972 25.8366 28.3543 26.2144 27.9276C26.2144 26.1227 26.2144 24.322 26.2144 22.5088C25.2807 22.5338 24.347 22.4838 23.4091 22.5422C22.9181 22.5688 22.4559 22.7822 22.1172 23.1387C21.7785 23.4952 21.589 23.9678 21.5876 24.4596V24.4596Z" fill="#3C81C0"/>
<path d="M55.6009 18.3822H57.6183C57.6183 19.3451 57.6183 20.308 57.6183 21.2708C58.358 20.7573 59.2214 20.4508 60.1193 20.383C60.9075 20.334 61.6928 20.5177 62.3775 20.9112C63.0622 21.3047 63.6163 21.8907 63.9708 22.5963C64.6002 23.8468 64.321 25.3099 64.3876 26.6688C64.4293 28.2194 63.8708 29.9617 62.4661 30.7912C61.2156 31.5749 59.7192 31.5248 58.3228 31.4373C57.2911 31.3159 56.3003 30.963 55.4241 30.4051C54.5478 29.8472 53.8089 29.0986 53.2625 28.2152C52.1912 26.7355 51.7994 24.8097 50.403 23.5592C49.2192 22.3838 47.3685 22.092 45.7846 22.5088C45.368 22.6346 45.0042 22.8935 44.749 23.2459C44.4938 23.5982 44.3611 24.0246 44.3715 24.4596C44.3715 25.56 44.3715 26.6604 44.3715 27.765C44.4179 28.0198 44.5155 28.2625 44.6582 28.4786C44.801 28.6946 44.9861 28.8795 45.2023 29.0221C45.4185 29.1646 45.6613 29.2619 45.9161 29.3081C46.1709 29.3542 46.4324 29.3483 46.6849 29.2906C47.5561 29.1656 48.1396 28.4153 48.5898 27.7275C48.6982 26.8188 48.5898 25.8976 48.6315 24.9848H50.6823C50.6823 27.1898 50.6823 29.3948 50.6823 31.5999C50.0029 31.5999 49.3151 31.5999 48.6315 31.5999C48.6315 31.3789 48.6315 30.9329 48.6315 30.712C48.1127 31.0422 47.5294 31.2579 46.9206 31.3449C46.3118 31.4319 45.6915 31.388 45.101 31.2164C44.2729 30.9643 43.5498 30.449 43.0412 29.7486C42.5327 29.0482 42.2665 28.2011 42.2832 27.3357C42.3415 25.5558 42.0039 23.5842 43.0918 22.0336C43.963 20.7456 45.5928 20.2246 47.0934 20.3038C49.4151 20.1579 51.6452 21.4459 52.929 23.3341C53.9502 24.8306 54.4171 26.6688 55.7051 27.9985C56.1642 28.4701 56.716 28.8414 57.3259 29.0889C57.9357 29.3364 58.5902 29.4548 59.2481 29.4365C60.0818 29.4365 61.0197 29.4365 61.6824 28.8446C62.0603 28.4326 62.2712 27.8947 62.2743 27.3357C62.2952 26.302 62.2743 25.2516 62.2743 24.2387C62.2742 23.7858 62.1019 23.3499 61.7923 23.0193C61.4827 22.6888 61.0589 22.4884 60.607 22.4588C59.3565 22.3504 58.2352 23.1882 57.6475 24.2095C57.5933 24.989 57.6475 25.7768 57.6225 26.5604C56.9472 26.5604 56.272 26.5604 55.5967 26.5604C55.5912 23.8399 55.5925 21.1138 55.6009 18.3822Z" fill="#EC4C5C"/>
<path d="M10.104 19.2409C10.8268 19.2409 11.4128 18.6549 11.4128 17.932C11.4128 17.2092 10.8268 16.6232 10.104 16.6232C9.38109 16.6232 8.7951 17.2092 8.7951 17.932C8.7951 18.6549 9.38109 19.2409 10.104 19.2409Z" fill="#F25263"/>
</g>
<defs>
<clipPath id="clip0_6671_32286">
<rect width="66.2926" height="32" fill="white"/>
</clipPath>
</defs>
</svg>
